<svg width="32" height="32" viewBox="0 0 32 32" fill="none" xmlns="http://www.w3.org/2000/svg">
  <path d="M15.05 1.95Q16 1.6 16.95 1.95L26.75 6.2Q27.85 6.65 27.85 7.85V19.2Q27.85 22.6 17.1 29.9Q16 30.6 14.9 29.9Q4.15 22.6 4.15 19.2V7.85Q4.15 6.65 5.25 6.2Z" fill="#EEE7DE" stroke="#D8D0C7" stroke-width="0.5" stroke-linejoin="round"/>
  <path d="M10.42 19.66A6.9 6.9 0 0 1 20.96 10.81" stroke="#C7462D" stroke-width="2.6" stroke-linecap="round"/>
  <path d="M22.87 8.97L22.8 14.4L19.06 12.65Z" fill="#C7462D" stroke="#C7462D" stroke-width="0.6" stroke-linejoin="round"/>
  <rect x="12.1" y="20.75" width="2.4" height="2.4" rx="0.3" fill="#C7462D" fill-opacity="0.8"/>
  <rect x="15.62" y="21.36" width="2.2" height="2.2" rx="0.3" fill="#C7462D" fill-opacity="0.62"/>
  <rect x="18.96" y="20.25" width="2" height="2" rx="0.3" fill="#C7462D" fill-opacity="0.46"/>
  <rect x="21.3" y="17.72" width="1.8" height="1.8" rx="0.3" fill="#C7462D" fill-opacity="0.34"/>
</svg>
